<?xml version="1.0" encoding="utf-8"?>
<!-- Generator: Adobe Illustrator 26.1.0, SVG Export Plug-In . SVG Version: 6.00 Build 0)  -->
<svg version="1.1" id="Livello_1" xmlns="http://www.w3.org/2000/svg" xmlns:xlink="http://www.w3.org/1999/xlink" x="0px" y="0px"
	 viewBox="0 0 724 724" style="enable-background:new 0 0 724 724;" xml:space="preserve">
<style type="text/css">
	.st0{fill:#001E36;}
	.st1{fill:#31A8FF;}
</style>
<path class="st0" d="M12,265.3c0-88.7,0-133,17.3-166.9c15.2-29.8,39.4-54,69.2-69.2C132.3,12,176.7,12,265.3,12h193.3
	c88.7,0,133,0,166.9,17.3c29.8,15.2,54,39.4,69.2,69.2C712,132.3,712,176.7,712,265.3v193.3c0,88.7,0,133-17.3,166.9
	c-15.2,29.8-39.4,54-69.2,69.2C591.7,712,547.3,712,458.7,712H265.3c-88.7,0-133,0-166.9-17.3c-29.8-15.2-54-39.4-69.2-69.2
	C12,591.7,12,547.3,12,458.7V265.3z"/>
<path class="st1" d="M379.6,527.5h-185c-3.1,0-4.7-1.8-4.7-5.3V216.4c-0.3-2.5,1.8-4.7,4.2-4.3h57.3c1.9-0.3,3.5,1.5,3.3,3.4v251.4
	h134.8c2.8,0,3.9,1.4,3.3,4.3l-8.5,52C384.3,525.8,382.1,527.5,379.6,527.5z"/>
<path class="st1" d="M426.6,287.8h51.2c2.8,0,5.4,2,6.1,4.8c3.8,8.5,4.2,18.8,4.2,28.1c8.8-10.5,19.4-19.2,31.2-25.8
	c12.7-7.4,27.2-11.1,41.8-10.8c2.4-0.4,4.6,1.8,4.2,4.3v58.3c0,2.2-1.6,3.4-4.7,3.4c-21.7-1.5-55.4,3.7-71.1,21.2v151.5
	c0,2.9-1.3,4.3-3.8,4.3h-54.9c-2.7,0.4-5.1-2.1-4.7-4.8V357.8c0-22,0.5-44.8-2.8-66.6C422.8,289.2,424.7,287.3,426.6,287.8z"/>
</svg>
