<?xml version="1.0" encoding="utf-8"?>
<!-- Generator: Adobe Illustrator 26.1.0, SVG Export Plug-In . SVG Version: 6.00 Build 0)  -->
<svg version="1.1" id="Livello_1" xmlns="http://www.w3.org/2000/svg" xmlns:xlink="http://www.w3.org/1999/xlink" x="0px" y="0px"
	 viewBox="0 0 718 718" style="enable-background:new 0 0 718 718;" xml:space="preserve">
<style type="text/css">
	.st0{fill:#001E36;}
	.st1{fill:#31A8FF;}
</style>
<path class="st0" d="M9,262.3c0-88.7,0-133,17.3-166.9c15.2-29.8,39.4-54,69.2-69.2C129.3,9,173.7,9,262.3,9h193.3
	c88.7,0,133,0,166.9,17.3c29.8,15.2,54,39.4,69.2,69.2C709,129.3,709,173.7,709,262.3v193.3c0,88.7,0,133-17.3,166.9
	c-15.2,29.8-39.4,54-69.2,69.2C588.7,709,544.3,709,455.7,709H262.3c-88.7,0-133,0-166.9-17.3c-29.8-15.2-54-39.4-69.2-69.2
	C9,588.7,9,544.3,9,455.7V262.3z"/>
<path class="st1" d="M159,521.9V214.1c0-2.1,0.9-3.3,2.9-3.3c30.1,0,60.3-1.8,90.4-1.8c48.9,0,101.9,16.7,120.5,67.9
	c4.4,12.6,6.7,25.4,6.7,38.9c0,25.7-5.8,47-17.5,63.7c-32.6,46.8-89.1,46.1-139.7,46.1v96c0.4,2.8-2,4.2-4.4,4.2h-55.4
	C160.2,525.8,159,524.6,159,521.9z M222.6,268.5V369c20.1,1.5,41.1,1.6,60.4-4.8c21.3-6.1,33-24.6,33-46.7
	c0.6-18.8-9.7-36.9-27.1-43.7C269.7,266,243.2,265.5,222.6,268.5z"/>
<path class="st1" d="M561.4,349.2c-8.8-4.7-18.2-8.1-27.9-10.1c-12.5-2.9-61.7-13.2-61.7,12.5c0.4,14.4,23.3,21.4,33.3,25.5
	c35.4,12.2,75.5,33.9,74.7,77.5c1.1,54.4-51.6,76.1-96.7,76.1c-23.5,0.2-48-3.4-69.5-13.5c-2.1-1.1-3.4-3.4-3.3-5.8v-52
	c-0.2-2.1,2-3.9,3.8-2.4c21.1,12.7,46.1,18.9,70.4,19.3c10.8,0,32.1-1,31.9-16.9c0-15.2-25.5-22.2-35.7-26
	c-14.7-5.3-28.7-12.6-41.6-21.7c-17.9-12.8-29.2-33.3-28.9-55.9c-0.1-51.2,48.4-74.2,92-74.2c20.4-0.2,42.3,1.3,61.3,9.6
	c2.7,0.8,3.3,3.7,3.3,6.3v48.6C567,349.3,563.7,350.3,561.4,349.2z"/>
</svg>
