<?xml version="1.0" encoding="utf-8"?>
<!-- Generator: Adobe Illustrator 26.1.0, SVG Export Plug-In . SVG Version: 6.00 Build 0)  -->
<svg version="1.1" id="Livello_1" xmlns="http://www.w3.org/2000/svg" xmlns:xlink="http://www.w3.org/1999/xlink" x="0px" y="0px"
	 viewBox="0 0 812 812" style="enable-background:new 0 0 812 812;" xml:space="preserve">
<style type="text/css">
	.st0{fill:#FFFFFF;}
	.st1{fill:#265787;}
	.st2{fill:#EA7600;}
</style>
<g>
	<path class="st0" d="M319.8,441c2.9-51.9,28.3-97.6,66.7-130c37.6-31.8,88.2-51.3,143.4-51.3c55.2,0,105.8,19.5,143.4,51.3
		c38.3,32.4,63.7,78.1,66.7,130c2.9,53.3-18.5,102.8-56.1,139.6c-38.3,37.3-92.9,60.8-153.9,60.8s-115.7-23.4-154-60.8
		C338.3,543.8,316.9,494.2,319.8,441z"/>
	<path class="st1" d="M422.1,445.6c1.5-26.6,14.5-50.1,34.2-66.7c19.3-16.3,45.3-26.3,73.6-26.3c28.3,0,54.3,10,73.6,26.3
		c19.7,16.6,32.7,40.1,34.2,66.7c1.5,27.4-9.5,52.8-28.8,71.6c-19.7,19.2-47.6,31.2-79,31.2s-59.4-12-79-31.2
		C431.6,498.4,420.6,472.9,422.1,445.6z"/>
	<path class="st2" d="M251,500.3c0.2,10.4,3.5,30.7,8.5,46.6c10.5,33.5,28.3,64.6,53.1,91.9c25.4,28.1,56.7,50.7,92.9,66.7
		c38,16.8,79.2,25.4,122,25.3c42.7-0.1,83.9-8.8,121.9-25.8c36.2-16.2,67.4-38.9,92.8-67c24.8-27.5,42.5-58.5,53.1-92.1
		c5.3-16.9,8.6-34.1,10-51.4c1.3-17,0.8-34-1.7-51.1c-4.7-33.2-16.2-64.3-33.9-92.6c-16.2-26.1-37-48.9-61.7-68.1l0.1,0L458.2,90.9
		c-0.2-0.2-0.4-0.4-0.6-0.5c-16.4-12.6-44-12.5-62,0.1c-18.2,12.8-20.3,33.9-4.1,47.2l-0.1,0.1l104.2,84.8l-317.7,0.3h-0.4
		c-26.3,0-51.5,17.3-56.5,39c-5.1,22.2,12.7,40.6,40,40.7l0,0.1l161-0.3L34.6,522.9c-0.4,0.3-0.8,0.6-1.1,0.8
		C6.4,544.4-2.3,579,14.8,600.8c17.3,22.2,54.2,22.3,81.6,0.1l156.8-128.3C253.1,472.6,250.9,489.9,251,500.3z M654,558.3
		c-32.3,32.9-77.6,51.6-126.5,51.7c-49,0.1-94.3-18.4-126.6-51.3c-15.8-16-27.4-34.4-34.5-54.1c-7-19.3-9.7-39.8-7.9-60.4
		c1.7-20.2,7.7-39.5,17.3-56.9c9.4-17.1,22.4-32.6,38.4-45.7c31.4-25.6,71.4-39.5,113.2-39.5c41.9-0.1,81.8,13.7,113.3,39.2
		c16,13,29,28.5,38.4,45.6c9.6,17.4,15.6,36.6,17.4,56.9c1.8,20.6-0.9,41.1-8,60.4C681.4,523.8,669.8,542.2,654,558.3z"/>
</g>
</svg>
