<svg id="Livello_1" data-name="Livello 1" xmlns="http://www.w3.org/2000/svg" viewBox="0 0 1000 1000"><defs><style>.cls-1{fill:#00a9e8;}.cls-2{fill:#6dc7f0;}.cls-3{fill:#fec707;}.cls-4{fill:#ef9e05;}.cls-5{fill:#ffdd5a;}.cls-6{fill:#1d1d1b;}.cls-7{fill:#fff;}.cls-8{fill:#252322;}</style></defs><g id="App_Matrix" data-name="App Matrix"><g id="Blue"><g id="Squircle"><path class="cls-1" d="M500,7.36c-215.87,0-335.88,0-414.26,78.38S7.36,284.13,7.36,500s0,335.88,78.38,414.26S284.13,992.64,500,992.64s335.87,0,414.25-78.38S992.64,715.87,992.64,500s0-335.88-78.39-414.26S715.87,7.36,500,7.36Z"/></g></g><circle id="Dot" class="cls-2" cx="500" cy="500" r="257.42"/><polygon id="Dog" class="cls-3" points="764.84 793.09 757.55 801.42 441.96 801.42 434.48 794.68 434.48 584.25 430.28 580.09 230.41 382.06 230.41 247.26 264.43 230.41 434.48 314.66 570.52 314.66 702.81 449.45 702.81 651.64 764.84 793.09"/><path id="Shadow" class="cls-4" d="M498.91,801.42H442l-7.49-6.74-2.28-2.06c-.49-79.74-2.4-179.79-1.91-212.53.11-7.15.32-11.08.69-10.91C472.84,588.07,493.2,749.16,498.91,801.42Z"/><path id="Highlight" class="cls-5" d="M432.6,314.66H567.4C634.8,382.05,668.49,415.75,686,432c-11.17,22.76-119.63-7.23-240.27-66.43C340.88,314.1,256.85,255.33,246.3,226.07Z"/><circle id="Eye" class="cls-6" cx="500" cy="381.58" r="23.4"/><circle id="EyeLight" class="cls-7" cx="495.32" cy="373.63" r="6.55"/><path id="Outline-Dog" class="cls-8" d="M423.24,599.28V782.69A18.73,18.73,0,0,0,442,801.42h0V599.28a46.54,46.54,0,0,0-13.7-33.1L248,385.93a27.89,27.89,0,0,1-8.22-19.86V258.53a18.72,18.72,0,0,1,27.09-16.75l153.65,76.83a47.18,47.18,0,0,0,20.93,4.94H551.9a27.9,27.9,0,0,1,19.84,8.22L684.61,444.62a28,28,0,0,1,8.22,19.87V643.22a46.28,46.28,0,0,0,4,18.95c.57,1.29,31.14,71.47,60.71,139.25h0a13.37,13.37,0,0,0,12.25-18.71C741.85,718.64,714.51,655.88,714,654.62a27.68,27.68,0,0,1-2.42-11.4V464.49a46.5,46.5,0,0,0-13.7-33.1L585,318.54a46.5,46.5,0,0,0-33.08-13.71H441.44a28.1,28.1,0,0,1-12.56-3L275.23,225a37.44,37.44,0,0,0-54.18,33.49V366.07a46.53,46.53,0,0,0,13.7,33.1L415,579.42A28,28,0,0,1,423.24,599.28Z"/><path id="Outline-Ear" class="cls-8" d="M595.46,710.61A37.52,37.52,0,0,1,558,673.13V583.78a9.36,9.36,0,1,1,18.72,0v89.35a18.72,18.72,0,0,0,27.09,16.75L698,642.8a9.36,9.36,0,0,1,8.37,16.75l-94.15,47.07A37.38,37.38,0,0,1,595.46,710.61Z"/></g></svg>