<svg id="Livello_1" data-name="Livello 1" xmlns="http://www.w3.org/2000/svg" viewBox="0 0 718 718"><defs><style>.cls-1{fill:#ee513b;}.cls-2{fill:#fff;}</style></defs><path class="cls-1" d="M23.63,394.33a50,50,0,0,1,0-70.66l300-300a50,50,0,0,1,70.66,0l300,300a50,50,0,0,1,0,70.66l-300,300a50,50,0,0,1-70.66,0Z"/><path class="cls-2" d="M262.72,85.54l-30.38,30.38,78.47,78.47a53.2,53.2,0,0,0,29.43,72.14v192a53.13,53.13,0,1,0,43,2.43V266.79l75,75a53.05,53.05,0,1,0,32.08-28.68l-80.56-80.56a53.15,53.15,0,0,0-66.5-66.5Z"/></svg>