<svg id="Layer_1" data-name="Layer 1" xmlns="http://www.w3.org/2000/svg" viewBox="0 0 595.28 594.51"><defs><style>.cls-1{fill:#fff;}</style></defs><path class="cls-1" d="M0,560.93q0-263.32.31-527c1.39-3.23,2.19-6.26,3.6-9,5.7-11,14-19,26.1-22.77C31.07,1.87,31.89.75,32.82,0q264.09,0,528.3.26c.38.53.59,1,.89,1.07C578.8,6,589.7,16.45,593.83,33.61c.08.34.95.49,1.45.73q0,262.56-.31,525.48c-.54.43-.94.46-1,.58q-6.18,25.65-31.58,32.66c-.35.1-.49,1-.73,1.45q-264.09,0-528.31-.25c-.48-.58-.79-1.09-1.21-1.22-16.06-4.78-26.61-14.92-30.73-31.39-.08-.34-.95-.48-1.45-.72m232-70.59v15.43h87.77v-3.22c.25-51.82.32-103.64,1-155.46.1-7.74,2.26-15.63,4.52-23.12,3.8-12.59,11.92-22.08,24.23-27,10.42-4.12,21.41-4.88,32.65-3.28,13.5,1.92,23.2,8.54,29.29,20.83,5.76,11.65,7.33,24.21,7.42,36.77.35,50.11.14,100.21.14,150.32v4.15h87v-4.28c0-54.81.11-109.62-.1-164.43,0-9.73-1.26-19.47-2.22-29.18a135.73,135.73,0,0,0-9.78-39.2c-7.42-17.82-19.09-31.49-36.21-40.6-17.35-9.22-36.22-11.16-55.3-12-5.31-.24-10.68.88-16,1.42a90.64,90.64,0,0,0-39.86,14.25,88.54,88.54,0,0,0-27.27,27.88,18.27,18.27,0,0,1-2.38,2.53l-1-.55V223.85H232V490.34M128.59,223.61H89.51V505.76h86.57V223.61H128.59m3.11-39.69c2.35-.25,4.7-.53,7.05-.75,15.24-1.44,26.73-9.36,35.47-21.34a47.26,47.26,0,0,0,8.72-35.27,49.42,49.42,0,0,0-17.88-32.11c-12.64-10.4-26.95-14.37-43-10.82A49.24,49.24,0,0,0,93,101.93c-9.08,11.69-12.68,24.85-10.37,39.22a48.93,48.93,0,0,0,19.11,31.91C110.35,179.67,120.16,183.16,131.7,183.92Z"/></svg>