<svg id="_2" data-name="2" xmlns="http://www.w3.org/2000/svg" viewBox="0 0 800 533.01"><defs><style>.cls-1{fill:#90edef;}</style></defs><path class="cls-1" d="M98.36,472.12H711a37.59,37.59,0,0,0,37.47-37.45V37.45A37.57,37.57,0,0,0,711,0H98.36A37.55,37.55,0,0,0,60.89,37.45V434.67A37.57,37.57,0,0,0,98.36,472.12ZM109.62,48.68H699.76V423.39H109.62Z"/><path class="cls-1" d="M0,493.65V503a30.07,30.07,0,0,0,30,30H770a30.07,30.07,0,0,0,30-30v-9.38Z"/><path class="cls-1" d="M482.67,244a57.22,57.22,0,0,1,30.78-51.87,66.6,66.6,0,0,0-51.87-27.67c-22-1.73-45.83,12.8-54.64,12.8s-30.61-12.11-47.21-12.11c-34.58,0-71.07,27.49-71.07,82.31a155.79,155.79,0,0,0,8.82,50.14c7.61,22.13,36.14,77.64,65.88,76.77,15.56,0,26.63-11.06,46.86-11.06s29.74,11.06,47.21,11.06c29.91,0,55.85-51,63.28-73.66a61.23,61.23,0,0,1-38-56.71Zm-34.58-101.5a58.3,58.3,0,0,0,14.35-44.78,65.51,65.51,0,0,0-41.84,21.61,58.94,58.94,0,0,0-16.09,44.27,51.9,51.9,0,0,0,43.23-21.1Z"/></svg>