<svg id="Threejs--Streamline-Svg-Logos" xmlns="http://www.w3.org/2000/svg" viewBox="0 0 24 24"><defs><style>.cls-1{fill:#fff;}</style></defs><polygon id="white" class="cls-1" points="0.69 0.58 23.25 7.06 6.21 23.47 0.69 0.58"/><path d="M.37.58A.26.26,0,0,1,.7.26L6.36,1.89a.23.23,0,0,1,.14,0L17.66,5.14a.33.33,0,0,1,.13,0l5.66,1.63a.27.27,0,0,1,.11.44L6.48,23.68a.26.26,0,0,1-.43-.13L3.21,12.08a0,0,0,0,0,0,0ZM5.22,18l1.23,5,3.7-3.56ZM9,14.07,5.45,17.53l4.77,1.37Zm.53,0,1.19,4.81,3.57-3.43ZM3.83,12.38,5,17.21,8.6,13.76ZM13.26,10,9.61,13.5l4.86,1.4Zm.51-.12L15,14.78l3.65-3.52ZM7.62,8.36,4,11.88l4.86,1.4Zm.51-.13,1.19,4.83L12.9,9.6ZM2.4,6.59,3.61,11.5,7.26,8Zm15.11-.68L13.92,9.37l4.78,1.37ZM18,5.79l1.21,4.9,3.63-3.5Zm-6.17-1.5L8.28,7.73,13,9.09Zm.51-.13L13.55,9l3.59-3.46ZM6.21,2.66,2.63,6.11,7.4,7.48Zm.51-.12L7.91,7.36l3.58-3.45ZM1,.89,2.2,5.79l3.64-3.5Z"/></svg>