<svg xmlns="http://www.w3.org/2000/svg" viewBox="0 0 274.96 283.46"><defs><style>.cls-1{fill:#00518c;}</style></defs><g id="pant541"><g id="logo"><g id="year"><path class="cls-1" d="M97.58,265.35l4-11.88-6.92-.89.36-1.09a31.48,31.48,0,0,0,7.27-.65,11.82,11.82,0,0,0,3.2-.89l1.09.36-5.4,16.22,3.65,2.62-.31.94L93,266.26l.32-.93Z"/><path class="cls-1" d="M113.74,278.06l.66-5.59,1.4.16,1,4.08a16.51,16.51,0,0,0,2.64.51c2.39.28,3.68.07,5-.73a5.19,5.19,0,0,0,2.34-3.77c.36-3.09-1.56-5.29-4.92-5.69l-1.29-.15.2-1.76.47.06c3.72.43,5.75-1,6.13-4.28.35-3-1.19-4.74-4.39-5.11a25.21,25.21,0,0,0-3-.16l-2.3,4.41-1.37-.16.64-5.43a33.69,33.69,0,0,1,7.49-.36c4.85.57,7.57,3.11,7.16,6.63-.37,3.16-3,5.2-7,5.6,4.23.74,6.7,3.4,6.29,6.88-.51,4.38-4.75,6.74-10.81,6a41.6,41.6,0,0,1-5.71-1.06Z"/><path class="cls-1" d="M143.6,271.75l.64-1.05,1.92-3.14,2.07-3.62,2.41-4.18.36-.67,1.25,11.75Zm9.54,7.46,3.33-.35-.62-5.83,3.68-.39-.27-2.55-3.68.39-1.78-16.75-1.57.16-11.9,19.52.13,1.25,12.06-1.28Z"/><path class="cls-1" d="M171.47,275.66l-1.83-5.33,1.34-.46,2.66,3.25a15,15,0,0,0,2.59-.68c2.28-.77,3.35-1.52,4.2-2.81a5.21,5.21,0,0,0,.49-4.41c-1-2.94-3.7-4.1-6.9-3l-1.23.43-.57-1.68.45-.15q5.29-1.81,3.68-6.51c-1-2.83-3.12-3.76-6.17-2.71a22.43,22.43,0,0,0-2.81,1.17l-.17,5-1.3.44L164.12,253a33.62,33.62,0,0,1,6.61-3.56c4.62-1.58,8.16-.46,9.31,2.89,1,3-.41,6-3.85,8.06,4.13-1.16,7.5.18,8.64,3.49,1.43,4.17-1.38,8.13-7.15,10.11a41.78,41.78,0,0,1-5.6,1.5Z"/></g><g id="text"><path class="cls-1" d="M55.2,243.18a5.67,5.67,0,1,1,7.93-.67A5.64,5.64,0,0,1,55.2,243.18Z"/><path class="cls-1" d="M48.73,207.45l-.86.54-3-2.12L26.1,217.68l.62,3.63-.86.54-5.7-9,.86-.54,3,2.16,18.76-11.81-.64-3.67.86-.54Z"/><path class="cls-1" d="M40.76,195.6l-.94.36-2.55-2.67-20.69,7.94-.11,3.69-.94.36L13.13,199l12.95-20.77-16,6.12L10,188.08l-.94.36L5.82,180l.94-.36,2.56,2.7,23.34-8.95.44,1.13-15,23.77,18.38-7,.09-3.72.95-.37Z"/><path class="cls-1" d="M27.62,153.75l-5.95.2-.05-1.45,5-2.16a19.75,19.75,0,0,0,.1-3c-.13-3.77-1.7-5.7-4.53-5.61-2,.07-2.9.79-4.62,3.65l-2.42,4.05c-1.26,2.2-1.89,2.91-3.08,3.72a6.25,6.25,0,0,1-3.41,1c-4.25.14-7.23-2.88-7.39-7.54,0-.69.06-1.9.14-3,.09-.9.19-1.63.29-2.12L2,139.79l.1-.58L7.82,139l0,1.5-4.79,2.07,0,.32A19.57,19.57,0,0,0,3,145c.14,4.05,1.46,5.91,4.13,5.82,1.86-.06,2.65-.7,4.34-3.55L14,142.86c1.57-2.65,1.8-3,2.91-3.79A7.21,7.21,0,0,1,21,137.76c4.49-.15,7.48,3.11,7.66,8.37a23,23,0,0,1-.48,4.89l-.45,2.28Z"/><path class="cls-1" d="M2.29,129l-1-.18,2-10.48,1,.19L5,122.14l15.93,3c4.78.9,7.28-.77,8.15-5.39.92-4.86-.75-7.4-5.37-8.27l-16.13-3-2,3.08-1-.19L6.33,102l1,.18.76,3.65,15.25,2.87c4.06.76,6.14,2.22,7.28,5.16a11.73,11.73,0,0,1,.31,6.9c-1.27,6.73-4.51,9.3-10.37,8.2L4.31,125.92Z"/><path class="cls-1" d="M13.74,87.76l1.13-2.56c.92-2.11,1.82-3,3.44-3.4a7,7,0,0,1,4.4.56,6.68,6.68,0,0,1,3.35,2.84c.88,1.63.82,3.28-.29,5.81L25,92.71Zm25,6.35-.93-.4-3,3.29-8.31-3.65,1.14-2.6c2.41-5.49,1.1-10.18-3.39-12.15a6.92,6.92,0,0,0-6-.06c-2,.93-3.34,2.56-4.77,5.83L9.34,93.76l.93.4,2.67-2.54,20.3,8.9-.07,3.69.92.4Z"/><path class="cls-1" d="M27.19,62.91l1.67-2.29c1.83-2.53,4.42-2.86,7.11-.91s3.4,5,1.64,7.4L36,69.31Zm11,6.17,15.64.38,3.81-5.25-.82-.6-3,1.71L40,65.37c1.83-3.63,1.14-7.17-1.81-9.32a6.14,6.14,0,0,0-5.39-1c-1.83.52-2.83,1.35-4.71,3.94l-6.45,8.89.83.6,3.14-1.92,18,13-.85,3.59.82.6L49.79,75,49,74.44l-3.17,2-8.47-6.14Z"/><path class="cls-1" d="M55.85,48.75,63.17,57l6.71-5.93-1.1-4.92,1-.88,3.68,5.07L58.94,63.21l-.67-.76,1.61-3.32L45.21,42.53l-3.49,1.19L41.05,43,55.44,30.24l4,4.55-1,.89L54.08,33.6l-6.53,5.77,7.22,8.17,5.5-4.86L58.89,39l.91-.8,5.87,6.65-.91.8-3.42-1.79Z"/><path class="cls-1" d="M87.81,34.22,86.22,12.39,93.13,9l.45.91L91.11,12.7l9.76,19.9,3.72-.25.45.91L95.43,38,95,37.06l2.46-2.79L88.66,16.34l1.7,24.35-.73.36L71.56,24.73l8.8,17.93,3.71-.24.45.91-8.15,4-.45-.9,2.43-2.78-9.76-19.9L64.91,24l-.44-.91,7.16-3.52Z"/><path class="cls-1" d="M115.14,17.68,119.05,5.5l1.55,11.44Zm7,10.39-2.82,1.85.14,1,18.07-2.44-.16-6.28-1.44.2L134,27.11,126,28.2l-1.43-10.56,6.5-.88,1.85,3.39,1.25-.17L133,11.18l-1.25.17-.87,3.8-6.51.88L122.8,4.83l7.87-1.07,2.49,4.16,1.4-.19-.81-6-15.9,2.15-9.48,26.07-2.81,1.85.13,1,8.8-1.19-.14-1-3.21-1.08,3.23-9.92,6.47-.88Z"/><path class="cls-1" d="M167.6,7.67l4.17,1.19c3.58,1,5.46,2.57,6.53,5.45a12.88,12.88,0,0,1,0,8.38c-1.09,3.82-2.84,6.27-5.58,7.89-2.48,1.44-4.46,1.59-7.81.63l-3.7-1.06Zm-2.87,25.39c3.9,1.12,6.76,1.13,9.52,0,3.8-1.53,6.64-5,8-9.69a13.25,13.25,0,0,0-.54-9.76c-1.55-3.27-3.9-5-9-6.4L161.13,3.93l-.28,1,2.88,2.3-6.09,21.31-3.66.43-.28,1Z"/><path class="cls-1" d="M181.9,39.18l.47-.9,3.67.33L196.36,19,194,16.15l.47-.89,9.47,5-.47.89-3.71-.34L189.45,40.4l2.39,2.86-.47.9Z"/><path class="cls-1" d="M217.89,53.12,213.09,59l-.52-.21a30.28,30.28,0,0,1-7.51-4.38c-3.49-2.84-5.13-5.63-5.28-9a14,14,0,0,1,3.5-9.58c2.89-3.55,6.48-5.59,10.32-5.81,3.55-.2,6.7.95,10.28,3.86A27.61,27.61,0,0,1,229,39.2l.33.43-3.8,4.68-1.2-1,1.73-5a14.6,14.6,0,0,0-2.34-2.27c-3.27-2.66-5.79-3.61-8.74-3.19-3.13.38-5.83,2.1-8.36,5.22-4.63,5.69-4.3,11.33.92,15.57a23.36,23.36,0,0,0,3.11,2.22l4.21-5.19-1.77-3.22.64-.79,8.3,6.75-.64.79Z"/><path class="cls-1" d="M216.72,63.83l.81-.59,3.15,1.92,17.94-13-.85-3.58.82-.6,3.93,5.41-7.15,23.41,13.84-10-.85-3.59.82-.59,5.33,7.34-.82.6-3.17-2L230.29,83.23l-.72-1,8.36-26.84L222,67l.88,3.62-.82.59Z"/><path class="cls-1" d="M233.51,88.9l.92-.42,2.71,2.5,20.13-9.29L257.13,78l.92-.43,4.48,9.72-.91.42-2.74-2.53-20.12,9.28.15,3.72-.92.43Z"/><path class="cls-1" d="M244.12,109.3l22-6-1.6-5.91-5.15-.53L259,95.48l6.42-1.74,5.88,21.66-6.41,1.74-.37-1.37,4.16-3.06L267.1,107l-22,6-.25,4.48-1,.26-3.23-11.88,1-.27Z"/><path class="cls-1" d="M268.8,134.71c-1.28.43-1.92.67-3.59,1.32l-6.49,2.54-.35-7.24Zm-11.63,4.55-8.23,3.32-1.65-3-1,0,.5,10.28,1,0,1.35-3.15,24.25-10.07-.11-2.27-25.18-9-1.65-3-1,.05.44,8.86,1,0,1.35-3.15,8.53,2.67Z"/><path class="cls-1" d="M247.38,159.48l22.47,3.7,1-6-4.46-2.62.24-1.44,6.56,1.08-3.65,22.15L263,175.23l.23-1.4,5.07-1.06,1-5.83-22.48-3.7-2.08,4-1-.17,2-12.15,1,.16Z"/><path class="cls-1" d="M241.81,174.12l1,.33.24,3.68,21,7.16,2.44-2.76,1,.33L263.93,193l-1-.33-.23-3.72-21-7.16-2.46,2.8-1-.32Z"/><path class="cls-1" d="M237.48,189.5l5.25,2.8-.68,1.29-5.37-.61a17.46,17.46,0,0,0-1.59,2.55c-1.78,3.32-1.39,5.78,1.12,7.12,1.75.93,2.89.76,5.82-.85l4.12-2.3c2.19-1.27,3.09-1.57,4.52-1.68a6.24,6.24,0,0,1,3.48.8c3.75,2,4.83,6.11,2.63,10.22-.32.61-1,1.63-1.64,2.57a20.93,20.93,0,0,1-1.32,1.69l-1.12,1.33-.37.44-5.08-2.71.71-1.32,5.18.61.19-.27a19.83,19.83,0,0,0,1.08-1.77c1.91-3.57,1.7-5.84-.66-7.1-1.65-.88-2.65-.72-5.54.9l-4.42,2.52c-2.68,1.5-3,1.68-4.41,1.82a7.18,7.18,0,0,1-4.17-.89c-4-2.12-4.92-6.44-2.44-11.08a23.55,23.55,0,0,1,2.86-4l1.53-1.76Z"/><path class="cls-1" d="M223.36,239.68a5.68,5.68,0,1,1,.23-8A5.64,5.64,0,0,1,223.36,239.68Z"/></g><g id="cherubino"><path class="cls-1" d="M130.22,149.94a1,1,0,0,0,.07.29,1.71,1.71,0,0,0,0,.31,2.36,2.36,0,0,0,.73,1.52l.41.54a3.63,3.63,0,0,0,1.87,1.47,2.1,2.1,0,0,0,1.57,0,1.52,1.52,0,0,1,1-.08l.48.33.81.49a1.94,1.94,0,0,0,1.65-.31l.87-.33,1-.07,1.28-.11.33,0c1-.15,2-.29,2.32-.79l.11-.52-.67-.69-.24-.15-1.07-.47-.27-.08-.59-.27-1.23-.37-1.11.32-.74.25-1.43-.08-.27,0-.76-.35-1.23-.46a3.27,3.27,0,0,0-1.76.45l-.52.25-.43.13c-.64,0-.77,0-1.19-.83l.55-1,1.63-2,0,0s0,0,0,0h0s0-.08.05-.11a.72.72,0,0,0,.19-.39.42.42,0,0,0-.11-.28c-.27-.29-.62,0-.73,0C132.42,146.66,130.22,148.57,130.22,149.94Z"/><path class="cls-1" d="M127.66,140l.83-.09-.09.11c-.37.33-.66.6-.54.95a.53.53,0,0,0,.51.37,1.12,1.12,0,0,0,1-.55l.25-.27.63-.43.91-.68.94-1.31a4.42,4.42,0,0,0,.3-2l-.35-1.74-.06-.21-.14-.45-.55-1.34c-.39-.67-1.35-2.17-2-1.8a.77.77,0,0,0-.39.75v.13l-.35.14a2.41,2.41,0,0,1-1.77-.53,5.58,5.58,0,0,0-1.94-.8,9.89,9.89,0,0,0-3.87,0,5.88,5.88,0,0,0-3.18,1.55,4.52,4.52,0,0,0-1.51,1.92l-.64,2.11v0a.61.61,0,0,0,.21.57.58.58,0,0,0,.33.12c.14.4.7.79,2.11,1.68a11.08,11.08,0,0,0,4.16.84h.35V139H123a1.46,1.46,0,0,0,.22,0,3.83,3.83,0,0,0,.9-.12l1.7-.14,1.62-.36a3.88,3.88,0,0,1,2-.21,9.76,9.76,0,0,1-.39,1.09h0a.61.61,0,0,0-.69-.54l-.79.08L126,139l-2.2.54a.61.61,0,1,0,.29,1.19l2.2-.54ZM119,137.2a16.28,16.28,0,0,1-1.53-1,5.65,5.65,0,0,1,.15-.65,2.12,2.12,0,0,1,.11-.21l.72-1.14a10.72,10.72,0,0,1,1-1l.21-.12a4.18,4.18,0,0,0-.43,1.83,4.11,4.11,0,0,0,1,2.69A3.71,3.71,0,0,1,119,137.2Zm5.33-2.36a.55.55,0,0,1,0-1.09.55.55,0,0,1,0,1.09Zm2.77,2.39-.71.16a4.13,4.13,0,0,0,.84-2.49,4.24,4.24,0,0,0-.41-1.79c.31.13.6.25.86.39a6.14,6.14,0,0,1,.64.62,5.48,5.48,0,0,1,1.34,2.73c0,.08,0,.15,0,.23A5.45,5.45,0,0,0,127.08,137.23Z"/><path class="cls-1" d="M117.66,126.21a13.76,13.76,0,0,1,5-.31l1,.07,1.67.21,2,.68,1.17.45a.6.6,0,0,0,.78-.35.63.63,0,0,0-.36-.8l-1.13-.44-2.13-.72-1.91-.25-.91-.07a15.23,15.23,0,0,0-5.42.33.62.62,0,0,0,.27,1.2Z"/><path class="cls-1" d="M141.42,167.32a0,0,0,0,0,0,0,3.66,3.66,0,0,1-1.43.84l-.35.1a3.86,3.86,0,0,1-2.32.06l-1-.24-1.61-.28h-.42c-.82,0-1.06-.05-1.18.28l-.09.26.23.21.56.5a4.8,4.8,0,0,0,3.83,1.6l.78-.07.93,0,1.19.52,1.16.66-.22-.93-.35-1.61v-.08c0-.46.28-.75.81-1.14h0Z"/><path class="cls-1" d="M147.42,162.62h0l-.16-.32c-.29-.65-.41-1.05-.14-1.43l-.56-.58s-.06.09-.1.11h0a1.62,1.62,0,0,0-.66,1.41,3.61,3.61,0,0,0,.1.75,2.32,2.32,0,0,1-.92-.09l-1.47-.71-1.28-1.23-.51-.56a1.57,1.57,0,0,0-1.23-.41l-.41,0a7.28,7.28,0,0,0-1.18.13l-.26,0s.05,0,.08,0l-.06,0,0,0-1,.26-.27,0-.36-.09-.41-.07-.91-.08-1.5.51-1,.81-.45.45-.44.42-1,.73a3.16,3.16,0,0,1-1.68.06l-.9-.24a2.31,2.31,0,0,0-.1-1.76l-.13-.38-.79.17a6.62,6.62,0,0,1,.06.84,1.4,1.4,0,0,1-.23.8h0l-.23.29A2.07,2.07,0,0,1,126,163a2.4,2.4,0,0,1-.58-.12h0l-.32.75a2.24,2.24,0,0,0,.9.19,2.72,2.72,0,0,0,2-.5,3.39,3.39,0,0,0,1.4,1,5,5,0,0,0,2.62.28l.42,0,1.38-.2,1.68-.17.85.21,1.24.26,1.13-.37a1.2,1.2,0,0,1,.83-.23l1.05.29.23.07a.61.61,0,0,0,.33,0l1.58.23a4.6,4.6,0,0,0,3.48-.73l.21-.25a2.34,2.34,0,0,0,1.25.61,1.93,1.93,0,0,0,1.89-.71l.45-.66-1.26,0C148,163,147.63,163,147.42,162.62Z"/><path class="cls-1" d="M100.12,115.52c-.09,0,.09,0,0,0Z"/><path class="cls-1" d="M156.89,131.37a9.65,9.65,0,0,0-3.06-.56,10.88,10.88,0,0,0-4.57.57A6.65,6.65,0,0,0,146.5,133l-.49.46a3.67,3.67,0,0,0-1.45,2.22,5,5,0,0,0,0,2.15l.19.94,1.1-1.57a7.4,7.4,0,0,0-.08.86l0,.86.81-.25a3,3,0,0,1,2.14,0l1.13.29,1.51.35,2.6.43h.66a6.58,6.58,0,0,0,3.18-.5l2.56-1.48,0-.33v0l.33-.26c.59-.46-.11-2.6-.69-3.5A4.5,4.5,0,0,0,156.89,131.37ZM150,137.81l-.95-.25a4.19,4.19,0,0,0-2-.18,5.62,5.62,0,0,1,.88-2.5,3.38,3.38,0,0,1,.36-.45l.61-.51a5,5,0,0,1,.91-.65,4.1,4.1,0,0,0,.21,4.55Zm4.5-2.36a.54.54,0,0,1,0-1.08.54.54,0,0,1,0,1.08Zm2.75,2.73a4.29,4.29,0,0,1-1.47.37,4.15,4.15,0,0,0,1.48-3.17,4.32,4.32,0,0,0-.28-1.48,7.9,7.9,0,0,1,1,.84,4,4,0,0,1,.94,1.88,4.68,4.68,0,0,1,.07.54Z"/><path class="cls-1" d="M152.45,140.29l-1-.38-2-.6-2.59.08-.65.09a.61.61,0,1,0,.15,1.21l.67-.09,2.26-.08L151,141l1.06.42a.59.59,0,0,0,.77-.36A.64.64,0,0,0,152.45,140.29Z"/><path class="cls-1" d="M201.38,77.41a1.06,1.06,0,0,0-.23,0l-1.08-.14a12.81,12.81,0,0,0-3.14-.25,14.5,14.5,0,0,0-5.64,1.39c0-.16.11-.32.15-.48a10,10,0,0,0-1.52-7.15c-2.64-4.48-8.3-9.07-16.47-13.22a6.05,6.05,0,0,0,2.35-4.8c0-.14,0-.28,0-.42a6,6,0,0,0-1.95-4,1.59,1.59,0,0,0-.61-.54l-.13-.05h0l-.23-.09a5.76,5.76,0,0,0-2-.76l-.15-.05s0,0,0,0-.17,0-.26-.06c-8.65-2.95-21.93-3.26-36.54-.87-13.22-1.8-24.49-1.23-32.32,1.51l-.16,0,0,0-.15.06a5.57,5.57,0,0,0-2,.76l-.23.09h0l-.13,0a1.61,1.61,0,0,0-.6.53,6,6,0,0,0-2,4c0,.19,0,.38,0,.56a6.18,6.18,0,0,0,1.31,4c-9.63,5.11-15.87,11-16.94,16.54a8.23,8.23,0,0,0,0,3.28,5.08,5.08,0,0,0,.18.59,14,14,0,0,0-3.69-.54,13.13,13.13,0,0,0-2.92.27l-1,.12-.24,0c-6.92,2-13,7.78-17.54,16.19a1.36,1.36,0,0,0-.33.63c-6.46,12.17-10,29.54-9,48.38.78,15.39,4.47,29.72,10.68,41.45a61.07,61.07,0,0,0,3.62,6.18l6.63,10.27a57,57,0,0,0,8.31,9.47s-.2-.2-.22-.22l1.54,1.49,1,.78a2.56,2.56,0,0,0,.26.2l2.2,1.32a10.45,10.45,0,0,0,6.2,1.52,7,7,0,0,0,1.12-.09,9.2,9.2,0,0,0,6.63-4.9l.16-.3.47-1a112.46,112.46,0,0,0,10,8.28,6,6,0,0,0-.91,3.13,6.14,6.14,0,0,0,.51,2.45c-.68,0-1.36,0-2-.05h0a8.76,8.76,0,0,0-1.86.21,7.36,7.36,0,0,0-4,12.53,7.66,7.66,0,0,0,3.58,2.05c.11.07.18.18.3.22a34.86,34.86,0,0,0,3.72.88c9.13,1.66,20.82.09,33.15-4.27a1.43,1.43,0,0,0,.21.12c13.83,4.75,26.46,5.84,35.63,3.1l.29-.07a.36.36,0,0,0,.19-.13l.79-.32a5.94,5.94,0,0,0,.79-.32,7.36,7.36,0,0,0-1.15-13.83,8.63,8.63,0,0,0-2.56-.42c-.66,0-1.36.05-2.09.05a6.23,6.23,0,0,0,.51-2.44,6.78,6.78,0,0,0-.77-2.75,112.6,112.6,0,0,0,9.79-8.17c.09.4.19.79.29,1.19l.23.92a1.93,1.93,0,0,0,.15.4,9,9,0,0,0,5.85,4.51,8.39,8.39,0,0,0,1.81.24,8.83,8.83,0,0,0,6.2-1.23l2.29-1.37a2.69,2.69,0,0,0,.27-.2l1-.85,1.52-1.49-.27.29a57.45,57.45,0,0,0,8.29-9.44L213.29,192a74.56,74.56,0,0,0,4-6.65c6.47-12.12,10.16-26.51,11-42.77,1-18.82-2.56-36.17-9-48.35v0a1.38,1.38,0,0,0-.6-1.07C214.11,85,208.18,79.33,201.38,77.41ZM174,62a4.5,4.5,0,0,1,1.92.6,1.25,1.25,0,0,0,.25.09c7.68,4.59,12.21,9.51,12.21,13.5a5.67,5.67,0,0,1-.1,1,6.37,6.37,0,0,1-2.45,3.58,9.4,9.4,0,0,1-5.73.53,3,3,0,0,0-.42,0L178,81.24l-3.26,0c-2.71.29-9,1.4-11,5.19,0,0,0,0,0-.07a1.61,1.61,0,0,0-.17.28,4.44,4.44,0,0,0-.57,1.13,9.85,9.85,0,0,0-6.33-2.65l-.76,0h-1.4a8.84,8.84,0,0,1-1-3.29,4.33,4.33,0,0,1,1.32-3.06,3.28,3.28,0,0,1,2.51-.67,8.85,8.85,0,0,1,2,.85l.42.22A1.63,1.63,0,0,0,162.05,77a9.21,9.21,0,0,1-.72-2.28,4.37,4.37,0,0,1,1.5-3,4,4,0,0,1,2.95-1,4.09,4.09,0,0,1,1.94.66A1.63,1.63,0,0,0,170,69.09a4,4,0,0,1-.9-2.64,4.79,4.79,0,0,1,1.64-3.33A4.46,4.46,0,0,1,174,62ZM169,136.89c0-.08-1.75-2.54-1.75-2.54a5.41,5.41,0,0,1-1.61-4.13,17.29,17.29,0,0,1,.15-1.86,12,12,0,0,0,1.59,0,6.58,6.58,0,0,0,3.1,4.52l.32,1.16c.12.45.24.89.35,1.32,0,.13.07.27.1.41.09.35.15.7.21,1.05,0,.12.05.25.07.38a11.2,11.2,0,0,1,.09,1.43v.14a10.88,10.88,0,0,1-.17,1.64,8.58,8.58,0,0,1-1.36,3.43,3.58,3.58,0,0,1-.64.69,1.64,1.64,0,0,1-.82.38,1.53,1.53,0,0,1-1.29-.25,1.28,1.28,0,0,1-.18-.39,3.11,3.11,0,0,0,1.34-.77,4.24,4.24,0,0,0,1.25-3.21A9,9,0,0,0,169,136.89Zm-4,10.05a4,4,0,0,0,1,.72c-.6,4.7-1.75,10.42-4.81,15.48-.4.67-.77,1.24-1.14,1.78a1.55,1.55,0,0,0-.32.45,26.91,26.91,0,0,1-4.42,4.73,30.61,30.61,0,0,1-4.59,3.46l-2.53,1.7c-3.08,2.11-5.21,3.54-8.87,3.66l1.13-.21,1.54-.32a.67.67,0,0,0,.55-.73.55.55,0,0,0-.64-.49l-1.78.37-1.28.24-1.06-.23-2.07-.38c-.33-.06-.53.17-.6.5a.72.72,0,0,0,.6.73l1.72.32,1,.21h-.12a15.06,15.06,0,0,1-4.67-.8l0,0a24.66,24.66,0,0,1-3.68-1.77l-3.48-1.8-2.36-1a18.21,18.21,0,0,1-6-3.62c-2.78-2.35-3.87-4.38-5.56-7.75-3-6-3.81-9.91-3.36-15.8l.25-.23c1.73-1.74,1.41-4.54,1.37-4.86a1.66,1.66,0,0,0-1.08-1.18,1.82,1.82,0,0,0-1.53.2,1.15,1.15,0,0,1-.23-.81,6,6,0,0,1,.47-2.09s1.27-1.76,1.27-1.76c1.39-1.65,3-3.52,2.15-9.06,0,0-.19-.5-.35-1a8.85,8.85,0,0,0,.34-4.23,1.68,1.68,0,0,0-.88-1.19,1.66,1.66,0,0,0-1.49,0,2.4,2.4,0,0,1-.38.12h0l.28-.11a5.25,5.25,0,0,0,2.4-1.52l.08.06a5.5,5.5,0,0,0,6.08-.8,5.78,5.78,0,0,0,1.64-6.86,1.69,1.69,0,0,0-.45-.51,4.63,4.63,0,0,0,.51.05,10,10,0,0,0,5.92-1.51,6.56,6.56,0,0,0,4,1.65,7.23,7.23,0,0,0,6.48-3.7,7.25,7.25,0,0,0,1-.71,7.28,7.28,0,0,0,12.4,2.06,8.9,8.9,0,0,0,4.61,2.64,1.22,1.22,0,0,0-.15.17,5.76,5.76,0,0,0,1.64,6.85,5.49,5.49,0,0,0,6.07.8l.09-.05a5.2,5.2,0,0,0,2.4,1.52l.28.11h0a1.52,1.52,0,0,1-.38-.11,1.66,1.66,0,0,0-1.49,0,1.62,1.62,0,0,0-.88,1.19c-.11.62-.49,3.6,1.07,5.42l-.16.45a20,20,0,0,0-.22,2.8,8.36,8.36,0,0,0,2.37,6.26l1.3,1.84a5.77,5.77,0,0,1,.43,2,1.18,1.18,0,0,1-.22.82,1.81,1.81,0,0,0-1.54-.2,1.65,1.65,0,0,0-1.07,1.18C163.66,142.4,163.34,145.2,165.06,146.94Zm-10.89,50.82a23.36,23.36,0,0,1-3.88,3.28,86.18,86.18,0,0,1-33.58,12.52,1.79,1.79,0,0,1,.07-3.42l.07,0a1.35,1.35,0,0,0,.34-.11l.8-.24c8.06-2.81,19.08-7.07,26.22-11.5a50.09,50.09,0,0,0,6.26-4.87l.31-.26a6.36,6.36,0,0,0,3.84,4.21Zm2.28,2.32,1.31-1.17a6.73,6.73,0,0,0,4,5.08l-4.43,2.88-1.49.91c-15.14,9.4-34,14.39-47.36,15.13a2.89,2.89,0,0,1-1.21-2.36,2.85,2.85,0,0,1,.86-2,1.62,1.62,0,0,0,.42-.37,2.9,2.9,0,0,1,1.68-.57c20.07-1.87,32.38-8,41.8-13.83A25.56,25.56,0,0,0,156.45,200.08Zm-34.53,3.48,1.37.81c-2,.77-4.1,1.53-6.31,2.3l-.16.05c-1.52-1-3-2-4.48-3a6.74,6.74,0,0,0,3.82-5.05l1.32,1.17A25.15,25.15,0,0,0,121.92,203.56Zm-2.62-6.45a6.36,6.36,0,0,0,3.85-4.21l.31.25a48.44,48.44,0,0,0,6.25,4.88c1.33.82,2.52,1.51,3.73,2.16-1.94.88-4,1.77-6.29,2.68l-3.52-2.08a22.44,22.44,0,0,1-3.87-3.28Zm23.19-1.61c-1.51.94-3.32,1.93-5.34,2.94a62.57,62.57,0,0,1-5.72-3.18,31.39,31.39,0,0,1-2.89-2.08l.15,0-.06,0a1.57,1.57,0,0,0,.37-.05,8.34,8.34,0,0,0,7.86-8.41,7.94,7.94,0,0,0-.64-2.69c.64.07,1.3.13,2,.16a17.54,17.54,0,0,0,2.08-.06,7.7,7.7,0,0,0-.46,2.38,8.4,8.4,0,0,0,6.36,8.21A32.71,32.71,0,0,1,142.49,195.5ZM106,142.67a3.35,3.35,0,0,0,1.35.78,1.18,1.18,0,0,1-.19.39,1.51,1.51,0,0,1-1.29.24,1.72,1.72,0,0,1-1-.55,7.66,7.66,0,0,1-1.81-3.95,10.15,10.15,0,0,1-.18-1.85,16.38,16.38,0,0,1,.83-4.51l.32-1.15a6.78,6.78,0,0,0,2.13-3.75s0-.07,0-.11l.22,0,.29,0h.56l.36,0,.27,0,.29,0,.49-.1.08,0c0,.46.12,1,.12,1.34a5.4,5.4,0,0,1-1.62,4.12L105.55,136a9.12,9.12,0,0,0-.78,3.47A4.24,4.24,0,0,0,106,142.67Zm8.21-68.79a7.59,7.59,0,0,0-2.6-5.28,7.29,7.29,0,0,0-5.28-1.8,5.25,5.25,0,0,0,.14-.73c0-.15,0-.3,0-.45A8.08,8.08,0,0,0,103.71,60c-.22-.19-.47-.34-.71-.51a6.79,6.79,0,0,0-.81-.5,1.67,1.67,0,0,0,.54-.45q2.28-1.06,4.81-2.09s0,0-.07,0l1.17-.25a4.15,4.15,0,0,1,1.88.31,4.2,4.2,0,0,1,1.23.74,4.73,4.73,0,0,1,.68,6.33,1.6,1.6,0,0,0,0,1.82,1.73,1.73,0,0,0,1.77.7l1.66-.34a2.42,2.42,0,0,1,1.75.61,3.63,3.63,0,0,1,1.1,2.5,3.36,3.36,0,0,1-.69,1.5l-.29.46a1.58,1.58,0,0,0,.2,1.81,1.78,1.78,0,0,0,1.87.52l1.27-.39a2.61,2.61,0,0,1,1.93.66,2.87,2.87,0,0,1,1,2,3,3,0,0,1-.43,1.76c-.57.32-1.12.66-1.63,1A6.42,6.42,0,0,0,120.41,76a7.38,7.38,0,0,0-5.81-1.83c-.14,0-.27.09-.41.11s0-.15,0-.22A1.27,1.27,0,0,0,114.22,73.88Zm13.93-13A104,104,0,0,1,165,58.12a2.39,2.39,0,0,0,.21.13,2.3,2.3,0,0,1-.53,4.42h-.42l-3.42-.35a94.34,94.34,0,0,0-14.33.63,117.34,117.34,0,0,0-16.08,3.17c0-.1,0-.21,0-.32A6.17,6.17,0,0,0,128.15,60.86Zm34.47,4.91,1.24.13,1,0a5.68,5.68,0,0,0,1-.18c0,.16-.07.32-.08.48s0,.31,0,.46a5.88,5.88,0,0,0,.14.73,7.2,7.2,0,0,0-3.12.51,5.61,5.61,0,0,0,0-.92A5.45,5.45,0,0,0,162.62,65.77Zm-4.5,9.15c-.13,0-.26-.1-.39-.12a6.52,6.52,0,0,0-5,1.42,6.91,6.91,0,0,0-2,3c-.59-.4-1.23-.8-1.91-1.19a2.89,2.89,0,0,1-.58-2,3,3,0,0,1,1-2,2.64,2.64,0,0,1,1.93-.65l1.26.38a1.76,1.76,0,0,0,1.87-.52,1.82,1.82,0,0,0,.39-1.09c.86,0,1.73-.09,2.6-.1l1.22-.08.14,0a7.66,7.66,0,0,0-.61,2.47c0,.06,0,.13,0,.19A1.89,1.89,0,0,0,158.12,74.92Zm1.28,39.57a3.52,3.52,0,0,0,1.78-3.2,4.24,4.24,0,0,0-.18-1.13,8.39,8.39,0,0,0,1.57-1.08,6.47,6.47,0,0,1,.33,1.25s0,.1,0,.15a6.07,6.07,0,0,1,.07.63,8.14,8.14,0,0,1,0,.88l-.19,1.33s0,0,0,0a3.64,3.64,0,0,1-1.41,1.89l-1.19.74a2.3,2.3,0,0,1-2.36-.29,3.7,3.7,0,0,1-.74-1A3,3,0,0,0,159.4,114.49Zm-2.16-3.21.65-.14a1.23,1.23,0,0,1,0,.2.4.4,0,0,1-.07.2A2.77,2.77,0,0,1,157.24,111.28Zm3.6-15.54-.15-.06c-.48-.17-1-.5-1.43-.23s-.7.33-.75.83L158.36,98a5.55,5.55,0,0,1,.11.93c0,.63-.27.81-.87,1-.65-.6-1-3.92-1.23-5.55l-.21-1.74a9.65,9.65,0,0,0-.2-1l0,0a13.67,13.67,0,0,0-1.34-3.2h1.21l.77,0c3.22.09,5.9,3,6.85,5.87l.27,1.11,0,0,.1.69s0,1.35.05,1.77A6.35,6.35,0,0,0,160.84,95.74Zm-5.07,6.84a3.1,3.1,0,0,0,2.58.44,4,4,0,0,0,3.12-2.85,4.14,4.14,0,0,1,.53,2.18,11.85,11.85,0,0,1-.26,2.29l-.36.89a0,0,0,0,1,0,0,5.14,5.14,0,0,1-2.8,2.13l-1.63.37c-2.21.12-5.14-.57-6.54-4.55a2,2,0,0,1,.06.23l-.25-.78-.06-.19a.13.13,0,0,0,0-.06l-.45-2.44c0-.46-.11-.89-.18-1.31-.52-3-1.69-5-3.7-6.3L144.67,92l-.08-.07-.46-.22c-1.32-.64-2-1-2.37-2.41a8.09,8.09,0,0,1-.14-.81c0-.1,0-.19,0-.29s0-.31,0-.46,0-.09,0-.13a4.08,4.08,0,0,1,.12-1l.66-1.13.2-.14c3.31-1.89,6.25.68,7.7,2.38a11.38,11.38,0,0,1,2.67,5.2l.2,1.68C153.52,98.06,153.89,101.28,155.77,102.58Zm-42.61,10.67a2.76,2.76,0,0,0,3.35,1.32,3.76,3.76,0,0,1-.74,1,2.28,2.28,0,0,1-2.36.29l-.35-.22a13.56,13.56,0,0,0,.12-1.77C113.18,113.66,113.16,113.45,113.16,113.25Zm2.63-1.85a.36.36,0,0,1-.07-.2,2.18,2.18,0,0,1,.07-.47c.12-.38.2-.74.28-1.11a9.71,9.71,0,0,0,1.71.66,1.66,1.66,0,0,0-.67.35A3.72,3.72,0,0,1,115.79,111.4Zm-.07-6.06a3.19,3.19,0,0,1-.65-1.38,11.85,11.85,0,0,1-.26-2.29,4.15,4.15,0,0,1,.52-2.18,4.08,4.08,0,0,0,3.13,2.85,3.1,3.1,0,0,0,2.58-.44c1.88-1.3,2.24-4.51,2.64-7.91l.1-.91.1-.78a9.79,9.79,0,0,1,1.38-3.44c.43-.7,4.33-6.8,9-4.14.78.44,1.1,1.41,1,2.88L135,88.65h0a2.55,2.55,0,0,1-.92,1.58c-.07.07-1.43.82-1.43.82-2,1-4.72,2.32-5.49,8h0l-.07.45,0,.13a14.35,14.35,0,0,1-.62,3,7.64,7.64,0,0,1-1.86,3.18,6.27,6.27,0,0,1-4.76,1.61A6.34,6.34,0,0,1,115.72,105.34ZM133.48,96c-.07.34-.14.67-.21,1a7.07,7.07,0,0,0-2-.41,4.63,4.63,0,0,1,1.95-2.07Zm-5.2,10.41a6.19,6.19,0,0,0,1.61,1.07,1,1,0,0,1-.25.06,3.32,3.32,0,0,1-1.63-.74Q128.14,106.58,128.28,106.37Zm1.49-3.46a17.85,17.85,0,0,0,.56-2.84c.17-.15.35-.32.5-.32,1.19,0,1.7.36,1.8.5l-.06-.13a1.76,1.76,0,0,0,1.23,1,1.64,1.64,0,0,0,1.49-.39,3.13,3.13,0,0,0,.52-.93,7.36,7.36,0,0,0,.63.47c0,.32,0,.62-.05.89v.17c0,.27,0,.51,0,.69a4.18,4.18,0,0,1-2.09,2.37,4.37,4.37,0,0,1-1.83.37A3.1,3.1,0,0,1,129.77,102.91Zm6.64-8.9,0-.24c.05-.39.15-1.16.18-1.44a5.22,5.22,0,0,0,1-1.42c0,.2,0,.4,0,.62,0,.06,0,.13,0,.2s0,.4.06.61a1.49,1.49,0,0,0,0,.21,14.46,14.46,0,0,0,.3,1.62l.06.2c0,.19.12.37.18.54s0,.13.08.19a2.91,2.91,0,0,0,.32.58,1.63,1.63,0,0,0,2.77-.23,3.05,3.05,0,0,1,.51-.83,3.79,3.79,0,0,1,1.15.27l.66.34a.94.94,0,0,1,.31.42l0,.08a2.24,2.24,0,0,1,.07.34,1.12,1.12,0,0,1,0,.2,3.31,3.31,0,0,1,0,.68c-.06.44-.23,1.76-2.54,1.69a7,7,0,0,1-2.84-.68,4.12,4.12,0,0,1-2.17-2.42Zm3.21,7.63.66.13a5.18,5.18,0,0,0,.74,1.64l.06.08a4.22,4.22,0,0,0,.54.58l.19.16a3.14,3.14,0,0,0,.89.47,1.64,1.64,0,0,0,1.76-.51,2.3,2.3,0,0,1,1.11-.81,1.53,1.53,0,0,1,.3,0l.2,0a2.22,2.22,0,0,1,.46.06.73.73,0,0,1,.57.44l.17.54.1,1.24c0,.93-1.85,2.17-3.25,2.17-2.67,0-4.5-2.14-4.55-5.32C139.57,102.45,139.59,102.07,139.62,101.64Zm18.56-32.83-1,.06a73.91,73.91,0,0,0-14.93,1.74c-2.61.57-5.07,1.22-7.38,1.93a1.49,1.49,0,0,0-.78.2A5.42,5.42,0,0,0,132.33,69a117.85,117.85,0,0,1,14.57-2.78,89.39,89.39,0,0,1,11.19-.64,1.54,1.54,0,0,0,.69.45,1.25,1.25,0,0,1,.83,1.25s0,.1,0,.17C159.62,67.79,159.46,68.52,158.18,68.81Zm-12.31,4.42A6.19,6.19,0,0,0,145,75.9a1.48,1.48,0,0,0,0,.21c-1.06-.48-2.18-1-3.34-1.4l-.23-.56c.51-.12,1-.25,1.52-.36C143.94,73.58,144.91,73.4,145.87,73.23Zm-12.8,3.33c.65-.23,1.34-.45,2-.66,1.46.43,2.87.89,4.22,1.38a1.54,1.54,0,0,0,1.59.61A47.63,47.63,0,0,1,147,80.76l.12.07a25.52,25.52,0,0,1,3.3,2.19c0,.19.08.38.13.57-3-2.32-6.41-2.76-9.46-1.08a1,1,0,0,0-.25,0,9.55,9.55,0,0,0-2.91,1.65,4.87,4.87,0,0,0-2.06-2.31c-4.5-2.57-9-.32-12.07,3.42a13.45,13.45,0,0,0-2.32-.4A7.28,7.28,0,0,0,122.4,82a23.22,23.22,0,0,1,2.45-1.67,1.57,1.57,0,0,0,.9-.5.24.24,0,0,0,.06-.08,45,45,0,0,1,5.44-2.48A1.56,1.56,0,0,0,133.07,76.56ZM121.89,88.24A12.54,12.54,0,0,0,120.83,91a7.49,7.49,0,0,0-.18.87l-.08.67c0,.15-.13,1.07-.13,1.07-.19,1.63-.58,5-1.23,5.55-.6-.15-.88-.31-.88-.94a5.87,5.87,0,0,1,.11-1l-.15-1.67c0-.5-.32-.56-.74-.83s-1,.07-1.43.23l-.16.06a9.62,9.62,0,0,0-1.17.52l-.32.2a5.6,5.6,0,0,0-.68.49,2.55,2.55,0,0,0-.3.26,4.76,4.76,0,0,0-.57.62c-.06.08-.14.16-.2.25a6.45,6.45,0,0,0-.56,1,1.72,1.72,0,0,0-.07.21,5.66,5.66,0,0,0-.3,1,2.84,2.84,0,0,0-.08.42,8.54,8.54,0,0,0-.12.92c0,.15,0,.31,0,.47a2.28,2.28,0,0,0,0,.26c0,.25,0,.52,0,.78s0,.33,0,.51q.08.79.24,1.68c0,.07,0,.13.07.2a3.45,3.45,0,0,0-1.54,1.13l0,0a5.8,5.8,0,0,0-.55.84,1.51,1.51,0,0,0-.11.22,8.68,8.68,0,0,0-.49,1.14l-.62,2.13c-.88,3.3-1.49,4.68-2.92,4.68-.77,0-1.45-.75-1.88-1.38l-.21-.35-.8-1.68c-.08-.19-.14-.36-.19-.52s0-.09,0-.13-.07-.22-.1-.32a.56.56,0,0,1,0-.12c0-.11,0-.22-.07-.32s0,0,0,0a2.11,2.11,0,0,1,0-.36v-.09c0-.11,0-.22,0-.34s0-.09,0-.14,0-.18,0-.27a1.59,1.59,0,0,0,.1-.57l.12-.62a1.87,1.87,0,0,1,.55-.87h0c.08-.08.16-.12.24-.19a2.62,2.62,0,0,0,2.9,1.21c3.09-.67,3.36-5.26,3.45-9.26,0-.27,0-.53,0-.79l0-1.91.17-1a9.09,9.09,0,0,1,7.26-6.71h.1a1.65,1.65,0,0,0,1.13-.1A19.78,19.78,0,0,1,121.89,88.24ZM113,107.88a4.55,4.55,0,0,1-.07.76,1.37,1.37,0,0,0-.13-.51,2.78,2.78,0,0,1,.2-.26Zm-6.52-10.43v.31c0,1.49-.12,5-.69,6.34l-.16-.41a1.28,1.28,0,0,0-1.26-.8,1.8,1.8,0,0,0-.51,0,3.2,3.2,0,0,1,.15-.66l.41-1a13.48,13.48,0,0,1,2.07-3.94Zm-1-3.53c-2.1,1.3-3,3.52-4.08,6.14l-.4,1a9.69,9.69,0,0,0-.57,3.51l0,.49-.25.35a31.68,31.68,0,0,1-4.1-5.14,15,15,0,0,1-2.2-6.62l-.13-.93A19,19,0,0,0,92.61,89a20.17,20.17,0,0,0-2.69-4.8,12.25,12.25,0,0,0,2.71-.22l1.83-.05,2.81-.07c4.32.47,7.83,1.93,8.51,3.55a1.52,1.52,0,0,0,.24.38c.24.3.27.45.32,1.24,0,0,0,.52.09.88S105.8,92.61,105.5,93.92Zm-6,18.2a2.3,2.3,0,0,1-1.09-.84c-.12-.17-.1-.36-.19-.54a2.75,2.75,0,0,0,.9,0A9,9,0,0,0,99.53,112.12Zm-1.07,5.28a18.23,18.23,0,0,0-.16-2.21,4.66,4.66,0,0,0,1.16.27,3,3,0,0,0,.66.06l.16,0h.08c-.33,1-.69,2.09-1.1,3.1-.05.12-.11.24-.17.36-.16.38-.32.75-.5,1.11a12.07,12.07,0,0,1-.78,1.32.25.25,0,0,1,0,.07,4.61,4.61,0,0,1-3,2.21l-.24.05a1.82,1.82,0,0,1-1.4-.35c-.1-.1-.09-.37-.15-.53a2.63,2.63,0,0,0,1.06.18,4.41,4.41,0,0,0,3.27-1.55A6.24,6.24,0,0,0,98.46,117.4Zm-.32,8.34a5.82,5.82,0,0,1,.16,1.05.44.44,0,0,1-.17.38l-.37-.28a1.28,1.28,0,0,0-1-.19c0-.08,0-.14,0-.2A6.5,6.5,0,0,0,98.14,125.74Zm-.41,14.46a5.75,5.75,0,0,0,1.9-2.29,14.62,14.62,0,0,0,.24,2.28h0a12,12,0,0,0,1.84,4.6l-.27.38a1.6,1.6,0,0,1-1,.61,1.18,1.18,0,0,1-.8-.4c-.09-.09-.3-.42-.33-1.53a1.82,1.82,0,0,0-1.63-1.65s-2.15-.39-2.66-1.91a2.7,2.7,0,0,0,1,.36Zm1.19-6.51a7.06,7.06,0,0,0,1.3,0,19.54,19.54,0,0,0-.45,2.13A6.26,6.26,0,0,0,98.92,133.69Zm2.76-3.91-.31.21a3.41,3.41,0,0,1-2.56.35,3.92,3.92,0,0,0,1-.33,3.53,3.53,0,0,0,1.69-3.19,12.07,12.07,0,0,0-.42-2.71s-.14-.63-.25-1.16l0-.24a25.86,25.86,0,0,0,2.34-5.23,4.76,4.76,0,0,0,2.52.76,5.08,5.08,0,0,0,1-.1,2.82,2.82,0,0,0-.79,2.07,5,5,0,0,0,0,.52,3.07,3.07,0,0,0,1.58,2.58,2.83,2.83,0,0,0,1.21.29,2.47,2.47,0,0,1-.28,1l-.1.14c-.49.41-1.91.24-2.59.16l-.9-.07a1.45,1.45,0,0,0-1.13.39,1.6,1.6,0,0,0-.5,1.12C103.08,128.09,102.61,129.15,101.68,129.78Zm63.52-23.42.1.17a3.43,3.43,0,0,0,1.11,1.1l.17.09a3.63,3.63,0,0,0,.76.29,2.63,2.63,0,0,0,.83,0,2.41,2.41,0,0,0,1.43-.67,4.19,4.19,0,0,0,.59-.7s.05.06.07.1l.57,1.08.23.81c0,.09.05.16.07.24.1.36.18.67.24,1,0,.09,0,.17,0,.26a4.76,4.76,0,0,1,.08.83s0,0,0,.07a6.22,6.22,0,0,1-.1.72c0,.16,0,.32-.07.49a0,0,0,0,0,0,0v0l-.44,1s-.63.8-.63.81h0a4.11,4.11,0,0,1-1.12.76,2.82,2.82,0,0,1-.6.2,2.61,2.61,0,0,1-.6.08c-.56,0-1.21-.19-1.88-1.6,0,0,0-.07,0-.11.1-.65.21-1.42.21-1.42a12.16,12.16,0,0,0-.13-1.77c0-.11,0-.21,0-.32a12.68,12.68,0,0,0-.33-1.46s0,0,0-.06a8.72,8.72,0,0,0-1.13-2.33c.06-.17.12-.32.17-.45h0A4.17,4.17,0,0,0,165.2,106.36Zm1.93-8.87a13.87,13.87,0,0,1,2.07,3.94l.39.95h-.11a1.29,1.29,0,0,0-1.26.8l-.29.73c0,.07-.07.2-.11.32-.56-1.38-.66-4.86-.68-6.34C167.14,97.9,167.13,97.62,167.13,97.49Zm3.3,29a1.58,1.58,0,0,0-.5-1.13,1.5,1.5,0,0,0-1.12-.39l-.89.08a5.52,5.52,0,0,1-2.47-.09l-.14-.08a2,2,0,0,1-.37-1.15,2.74,2.74,0,0,0,1.2-.28,3.1,3.1,0,0,0,1.59-2.59c0-.18,0-.35,0-.51a2.81,2.81,0,0,0-.8-2.07,6.39,6.39,0,0,0,1,.09,6.18,6.18,0,0,0,2.57-.59,25.69,25.69,0,0,0,2.28,5.07l-.11.53c-.05.27-.11.53-.14.69l0,.18a12.07,12.07,0,0,0-.42,2.7,3.54,3.54,0,0,0,1.69,3.2,4.07,4.07,0,0,0,1,.32,3.08,3.08,0,0,1-2.25-.22l-.29-.13C171.12,129.52,170.57,128.43,170.43,126.49Zm4.3,7.3c-.13.22-.27.44-.39.68-.06-.21-.12-.42-.17-.62l.07,0A3.89,3.89,0,0,0,174.73,133.79Zm0,7.21a13.45,13.45,0,0,0,.19-1.59,9.77,9.77,0,0,0,1,.93l1.76.45a2.66,2.66,0,0,0,1-.4c-.44,1.55-2.67,1.94-2.69,1.94a1.82,1.82,0,0,0-1.63,1.66c0,1.1-.24,1.44-.33,1.53a1.14,1.14,0,0,1-.81.39,1,1,0,0,1-.46-.15A11.83,11.83,0,0,0,174.69,141Zm2.18-14.16a1.27,1.27,0,0,0-1,.18s-.35.27-.38.28a.44.44,0,0,1-.17-.38,7.28,7.28,0,0,1,.16-1,6.91,6.91,0,0,0,1.4.78A.92.92,0,0,0,176.87,126.84Zm-1-5.21-.05-.07q-.4-.61-.78-1.32c-.17-.34-.32-.7-.48-1.06l-.19-.42c-.41-1-.77-2.07-1.09-3.09l.24,0a2.35,2.35,0,0,0,.65-.05,4.34,4.34,0,0,0,1.17-.28,16.55,16.55,0,0,0-.16,2.22,6.29,6.29,0,0,0,1.16,4.11,4.43,4.43,0,0,0,3.28,1.55,3,3,0,0,0,1.06-.18c-.07.16-.05.43-.16.53a1.81,1.81,0,0,1-1.41.34l-.22,0A4.63,4.63,0,0,1,175.87,121.63ZM174.75,111a3.1,3.1,0,0,0,.73-.09,4.18,4.18,0,0,1-.28.56h0v0a3.3,3.3,0,0,1-.5.54c0-.22,0-.44.05-.65a2.66,2.66,0,0,0,0-.28S174.75,111,174.75,111Zm-1.28-5-.23-.47-.05-.83a9.66,9.66,0,0,0-.58-3.5l-.39-1c-1.3-3.19-2.38-5.75-5.61-6.82a2.25,2.25,0,0,1-.08-.24c-.26-1.07-.59-2.41-.65-2.68s.08-.87.08-.87c.06-.78.08-.93.33-1.23a1.9,1.9,0,0,0,.23-.39c.69-1.62,4.19-3.07,8.52-3.54l2.8.07,1.83,0a12.1,12.1,0,0,0,4.45.07,21.08,21.08,0,0,0-2.1,4,19.09,19.09,0,0,0-1.12,3.69s-.14,1-.14,1a15,15,0,0,1-2.2,6.62A38.55,38.55,0,0,1,173.47,106Zm-3.66-46.62.46.22c-.13.07-.27.11-.4.18C169.85,59.62,169.84,59.49,169.81,59.35Zm-42.39-8.89c2.23-.49,4.45-.92,6.64-1.28h.05A1.52,1.52,0,0,0,135,49c14.76-2.34,28.28-1.86,36.1,1.39a2.59,2.59,0,0,1,1.45,2.09,1.34,1.34,0,0,1,0,.2,2.7,2.7,0,0,1-2.44,2.75h-.42l-1.44-.2a93.56,93.56,0,0,0-12-.93,122.23,122.23,0,0,0-12.69.49,113.24,113.24,0,0,0-17,3.09c0-.16.09-.31.11-.47s0-.62,0-.93a7.06,7.06,0,0,0-.94-3.53,6.93,6.93,0,0,0-.84-1.19,6.07,6.07,0,0,0-.65-.59C125.28,50.94,126.34,50.69,127.42,50.46ZM121.6,61.72a1.76,1.76,0,0,0,1.61,1h1.69c1.89.25,2.41,2.11,2.23,3.63a3.15,3.15,0,0,1-.94,1.33l-.37.4a1.56,1.56,0,0,0-.15,1.8,1.79,1.79,0,0,0,1.74.88l1.3-.13a2.36,2.36,0,0,1,2.15,2.87s-.09.2-.2.47c-1.19.45-2.33.92-3.39,1.4a.31.31,0,0,0,0-.1A6.13,6.13,0,0,0,125.17,71a5.78,5.78,0,0,0-3.33-1.36A4,4,0,0,0,122,69c0-.09,0-.18,0-.26A6.78,6.78,0,0,0,119.78,64a5.6,5.6,0,0,0-3.46-1.34,8.34,8.34,0,0,0,.28-1.79c0-.18,0-.36,0-.54a7.84,7.84,0,0,0-2.2-4.93c-.17-.17-.31-.36-.49-.52s-.44-.32-.66-.48c1.87-.63,3.82-1.24,5.84-1.81h0a4.56,4.56,0,0,1,3,1,4.83,4.83,0,0,1,.42.37,3.92,3.92,0,0,1,.92,3.1,4.69,4.69,0,0,1-.72,2,1.6,1.6,0,0,0-.6.76l-.13.15A1.61,1.61,0,0,0,121.6,61.72Zm-21.83-8.6a2.62,2.62,0,0,1,1.48-2.1c5.23-2.18,12.78-3.16,21.63-2.84a124.15,124.15,0,0,0-16.35,5.24l-.19,0h.1c-1.9.76-3.72,1.56-5.44,2.38a2.35,2.35,0,0,1-1.24-2.37C99.76,53.34,99.76,53.22,99.77,53.12Zm-12,15.28a41.6,41.6,0,0,1,8.18-6.23,1.38,1.38,0,0,0,.47-.16,4.37,4.37,0,0,1,1.93-.6,4.42,4.42,0,0,1,.73,0,4.49,4.49,0,0,1,2.51,1.07,4.8,4.8,0,0,1,1.63,3.33,4.1,4.1,0,0,1-.89,2.65,1.63,1.63,0,0,0,2.27,2.23,4.06,4.06,0,0,1,4.89.34,4.4,4.4,0,0,1,1.49,3,8.75,8.75,0,0,1-.72,2.27,1.64,1.64,0,0,0,.37,1.85,1.59,1.59,0,0,0,1.84.27l.43-.22a8.05,8.05,0,0,1,2.06-.84,4.08,4.08,0,0,1,3.23,1,3.31,3.31,0,0,1,1,2.62,4.78,4.78,0,0,1-1.87,3.88l-.52.06a12.17,12.17,0,0,0-7.17,4l0-.15A4.94,4.94,0,0,0,108.7,86a1.35,1.35,0,0,0-.15-.26s0,0,0,.07c-1.94-3.79-8.27-4.89-11-5.19l-3.27.05-1.68,0a3.15,3.15,0,0,0-.43,0,9.52,9.52,0,0,1-5.72-.53,6.32,6.32,0,0,1-2.45-3.58,4.87,4.87,0,0,1-.1-1C84,73.43,85.28,71,87.76,68.4ZM56,100.59a9.14,9.14,0,0,0,2.77,3.8,8.51,8.51,0,0,0,5.38,1.85,8.62,8.62,0,0,0,2.52-.4A7.41,7.41,0,0,0,74,111.1a8.33,8.33,0,0,0,4.81-1.6,8.37,8.37,0,0,0,7.73,5.81,8.5,8.5,0,0,0,7.17-4A1.63,1.63,0,1,0,91,109.58a5.24,5.24,0,0,1-4.42,2.47c-2.8,0-5.08-2.62-5.08-5.85a1.63,1.63,0,0,0-3-.87A5.29,5.29,0,0,1,74,107.84c-2.7,0-4.36-1.56-4.69-4.38a1.64,1.64,0,0,0-.89-1.27,1.62,1.62,0,0,0-1.54,0,5.53,5.53,0,0,1-2.77.74,5.27,5.27,0,0,1-4-1.63,7.15,7.15,0,0,1-1.74-4.43s.07-1.44.08-1.58C62.61,87.91,67.87,82.77,73.89,81l.18-.06.91-.12c5.92-1.22,12,2.72,14.59,9.35a15.5,15.5,0,0,1,1,3.08s.12.86.12.86a18.16,18.16,0,0,0,2.58,7.75,27.47,27.47,0,0,0,3,4.07,1.81,1.81,0,0,0-.65.64,7.86,7.86,0,0,0-1,2.62,6.35,6.35,0,0,0,.75,3.23,7,7,0,0,0-.34,2.07,8.68,8.68,0,0,0,.06,1,13.82,13.82,0,0,1,.15,1.93,3.3,3.3,0,0,1-.43,2c-.07.09-.27.27-.87.34a2.31,2.31,0,0,1-.56-.67,1.64,1.64,0,0,0-1.36-.73,1.74,1.74,0,0,0-1.44.71,1.63,1.63,0,0,0-1.64.82,5.71,5.71,0,0,1-5,3,5.85,5.85,0,0,1-5.72-6,1.63,1.63,0,0,0-1.44-1.62A1.61,1.61,0,0,0,75,116.59c-.59,2.41-2.81,4-5.66,4a5.78,5.78,0,0,1-5.54-4.48,1.63,1.63,0,0,0-1-1.13,1.58,1.58,0,0,0-1.49.16,4.35,4.35,0,0,1-2.71.84A4.61,4.61,0,0,1,55,114.43,10,10,0,0,1,52.86,110l0-.09A70.38,70.38,0,0,1,56,100.59Zm-4.45,14.67A9,9,0,0,0,54,117.85a8.08,8.08,0,0,0,4.6,1.37,7.47,7.47,0,0,0,2.8-.55,8.86,8.86,0,0,0,7.93,5.16A9.14,9.14,0,0,0,76,121.05,8.73,8.73,0,0,0,89.74,124a4.34,4.34,0,0,0,3.79,3l.09,1,.19,1.84a10.62,10.62,0,0,0,2,5.07c.56.86.85,1.3.85,1.64a.93.93,0,0,1-.37.61c-.21-.26-.42-.55-.55-.73l-1.08-1.11c-.4-.42-.8-.26-1.35-.13s-.82.88-1,1.43l-.32,1-.47,1.75c0,.14,0,.27,0,.4a5.16,5.16,0,0,0,1.83,4,7.41,7.41,0,0,0,2.77,1.4,4.55,4.55,0,0,0,1.14,2.52,4.29,4.29,0,0,0,3.21,1.38,4.59,4.59,0,0,0,3.39-1.7l.28-.4a4.23,4.23,0,0,0,1.33.39l.42,0c-.29,5.84.75,10.19,3.78,16.26.33.66.64,1.26,1,1.85a5.24,5.24,0,0,1-1.58.33c-2-.6-3.15-1.34-4.61-3.93a1.4,1.4,0,0,0-.1-.16l-1.41-1.93a16.22,16.22,0,0,0-12.75-9.39,105.26,105.26,0,0,1-1.73-21.06c.07-.24.16-.47.21-.71a1.63,1.63,0,1,0-3.19-.66A4.62,4.62,0,0,1,81,131.69,4.57,4.57,0,0,1,76.91,129a1.63,1.63,0,0,0-3.12.67,5,5,0,0,1-5.3,5c-2.25,0-4-2.48-4.64-4.78a1.63,1.63,0,0,0-1.63-1.18A1.61,1.61,0,0,0,60.69,130a5.37,5.37,0,0,1-5,4.54,5.12,5.12,0,0,1-4.27-2.68,11,11,0,0,1-1.5-4.44,1,1,0,0,0,0-.1A103.06,103.06,0,0,1,51.55,115.26Zm44.74,61.2v0A4.65,4.65,0,0,1,91.77,181a4.37,4.37,0,0,1-1.43-.27l-.34-.32a1.65,1.65,0,0,0-1.66-.33,1.63,1.63,0,0,0-1.06,1.31c-.3,2.22-1.93,3.54-4.35,3.54a4.12,4.12,0,0,1-3.32-1.35,1.33,1.33,0,0,0-.19-.14c-4.18-9.1-4.83-17.64-1.09-24.06a19.91,19.91,0,0,1,1.8-3,1.61,1.61,0,0,0,.73-.86A5.61,5.61,0,0,1,83,154.15a11.07,11.07,0,0,1,4.73-.68,13.17,13.17,0,0,1,12.38,7.81c.06.11.12.22.19.33l1.43,2a15.13,15.13,0,0,0,1.46,2.17,16.29,16.29,0,0,1,.7,3.59,4.7,4.7,0,0,1-4.59,4.79l-.77-.14a2.89,2.89,0,0,0-1.17,0l-.2.07a1.66,1.66,0,0,0-1,1,1.61,1.61,0,0,0-.09.54A1.73,1.73,0,0,0,96.29,176.46Zm-23-1.68L72,172l-2-4.5-.87-2.56s-1.94-5.6-1.94-5.6c-2.32-7.82-2.95-15.89-3.1-23.17a6.57,6.57,0,0,0,4.38,1.76,8.65,8.65,0,0,0,5.67-2,119.68,119.68,0,0,0,3.37,18.53,22.83,22.83,0,0,0-2.06,3.42C72.67,162.63,72,168.46,73.25,174.78Zm4-40.89A7.35,7.35,0,0,0,81,135a7.64,7.64,0,0,0,4.16-1.27,116.28,116.28,0,0,0,1.65,16.54,12.49,12.49,0,0,0-5.07.89,8.27,8.27,0,0,0-1.52.75A111.86,111.86,0,0,1,77.29,133.89Zm14.23,74.79-.12.25a5.88,5.88,0,0,1-5,3.22,6.47,6.47,0,0,1-3.77-.74l-.74-.36s-1.79-1.08-2-1.22L78.84,209l-.94-.91s-.19-.2-.22-.22A54.91,54.91,0,0,1,70,199.06s-6.63-10.28-6.63-10.28a58.38,58.38,0,0,1-3.46-5.91c-6-11.31-9.55-25.17-10.31-40.08q-.15-3.06-.15-6.06c0-.66,0-1.32,0-2A8.94,8.94,0,0,0,51,136.22a7.66,7.66,0,0,0,4.63,1.55,7.81,7.81,0,0,0,5.19-2c.13,7.62.77,16.15,3.24,24.49l2,5.76.88,2.58s2.09,4.8,2.09,4.8l1.33,2.93a90.62,90.62,0,0,0,9,13.77,84.12,84.12,0,0,0,13,16.54A6.56,6.56,0,0,1,91.52,208.68Zm8.47.48a1.68,1.68,0,0,0-.58-.33q-3.69-3.24-6.85-6.61a7.58,7.58,0,0,0,6.74-7.59,9.12,9.12,0,0,0-.13-1,1.3,1.3,0,0,0,.21,0,7.55,7.55,0,0,0,7.41-7.32,10,10,0,0,0,1.6.14,7.58,7.58,0,0,0,7.48-7.67,7.74,7.74,0,0,0-3.24-6.32,1.63,1.63,0,1,0-1.88,2.66,4.48,4.48,0,0,1,1.86,3.66,4.32,4.32,0,0,1-4.22,4.41,3.15,3.15,0,0,1-2.63-.89,1.63,1.63,0,0,0-2.8,1.13,1.58,1.58,0,0,0,.26.88l.13.2a4.75,4.75,0,0,1,.25,1.45,4.33,4.33,0,0,1-4.22,4.41,3,3,0,0,1-2.26-.81,1.61,1.61,0,0,0-2.24.2A1.66,1.66,0,0,0,95,192l.56.53a4.67,4.67,0,0,1,.47,2.06A4.32,4.32,0,0,1,91.82,199a4.12,4.12,0,0,1-2.92-1.23,1.81,1.81,0,0,0-.53-.35,72.29,72.29,0,0,1-6.19-8.8,1.73,1.73,0,0,0-.26-.55,8.07,8.07,0,0,0,1,.09,7.21,7.21,0,0,0,6.92-4.29,7.26,7.26,0,0,0,9.54-6.56,7.94,7.94,0,0,0,7.71-8,6.28,6.28,0,0,0-.06-.79c.44.17.9.33,1.4.47a1.61,1.61,0,0,0,.44.06,8.05,8.05,0,0,0,3.43-.78,20,20,0,0,0,3.74,4.11,21.41,21.41,0,0,0,6.88,4.15l2.22.95,3.27,1.69a30.29,30.29,0,0,0,3.75,1.84,12,12,0,0,1,1.44,3.69,5.1,5.1,0,0,1-5,5.2,1.33,1.33,0,0,0-.4.05,9.32,9.32,0,0,1-4.62-.93h0l-.79-.66a6.34,6.34,0,0,0-2.08-2.54,1.64,1.64,0,0,0-2.28.38,1.62,1.62,0,0,0,.39,2.27,2.91,2.91,0,0,1,.65.66,1.74,1.74,0,0,0,.57,1.16,3.49,3.49,0,0,1,.1.79,3.09,3.09,0,0,1-3,3.16,2.93,2.93,0,0,1-2.38-1.23,1.63,1.63,0,0,0-2.94,1.12l0,.39a1.67,1.67,0,0,0,.34.85,3.23,3.23,0,0,1,.79,2.13,3.5,3.5,0,0,1-3.41,3.57,3.1,3.1,0,0,1-1.29-.34l-.55-.43,0,0-.09,0-1.13-.89a1.63,1.63,0,0,0-2.29.25,1.62,1.62,0,0,0,.25,2.29c.3.25.63.49.94.74l.09.14a1.75,1.75,0,0,0,.23.24,4.43,4.43,0,0,1,1.14,2.88,4.26,4.26,0,0,1-4.16,4.35A4,4,0,0,1,100,209.16Zm4.72,4a7.55,7.55,0,0,0,5.41-7c1.12.79,2.26,1.56,3.41,2.32a5,5,0,0,0-.77,5.63c-.89.1-1.78.21-2.7.29a5.84,5.84,0,0,0-2.76.74C106.42,214.49,105.56,213.85,104.71,213.19ZM171.61,226c2.22,0,4.69,1.67,4.69,4.16a4.4,4.4,0,0,1-4.25,4.48h-.17c-.19,0-.31.16-.47.23-7.67,2-17.89,1.31-29.26-2.11,1.18-.47,2.35-1,3.53-1.5a123.86,123.86,0,0,0,11.95-6.12,87.51,87.51,0,0,0,9.91.88C169,226,170.39,226,171.61,226Zm-9.47-3.58c1.48-.94,2.92-1.89,4.33-2.88a2.91,2.91,0,0,1,.21.81,2.87,2.87,0,0,1-1.18,2.33C164.41,222.58,163.29,222.49,162.14,222.38Zm-2.91-2A119.29,119.29,0,0,1,136,231.62c-12.75,4.47-24.67,5.81-33.45,3.46-.17-.07-.29-.21-.47-.22l-.17,0a4.39,4.39,0,0,1-4.25-4.48c0-2.49,2.47-4.16,4.78-4.16,1.61.09,3.37.09,5.22,0,13.87-.57,33.93-5.74,49.91-15.66l1.48-.91,4.8-3.11a7.54,7.54,0,0,0,5.4,6.9A116,116,0,0,1,159.23,220.37Zm19.08-30.21a1.63,1.63,0,0,0-2.13,0c-.55.47-.55.47-1.63.47a4.33,4.33,0,0,1-4.22-4.41,4.47,4.47,0,0,1,.27-1.55,1.87,1.87,0,0,0,.09-.41l0-.26a1.63,1.63,0,0,0-2.79-1.28c-.61.63-.95.74-2.39.74a4.33,4.33,0,0,1-4.22-4.42,4.51,4.51,0,0,1,1.86-3.66,1.62,1.62,0,0,0,.4-2.27,1.64,1.64,0,0,0-2.28-.39,7.74,7.74,0,0,0-3.24,6.32,7.59,7.59,0,0,0,7.48,7.67,10.57,10.57,0,0,0,1.62-.11,7.54,7.54,0,0,0,7.4,7.29h.16a8.26,8.26,0,0,0-.08,1,7.57,7.57,0,0,0,6.73,7.59c-.52.55-1,1.09-1.57,1.63a1.62,1.62,0,0,0-.71.71c-1.45,1.44-3,2.87-4.57,4.27a1.6,1.6,0,0,0-.57.34,4.07,4.07,0,0,1-2.74,1.07,4.26,4.26,0,0,1-4.16-4.34,5.9,5.9,0,0,1,1.19-2.78,1.63,1.63,0,0,0-2-2.47l-.49.21-.24.14c-.19.12-.19.12-.64.11l-.59,0a3.49,3.49,0,0,1-3.4-3.56,3.25,3.25,0,0,1,.79-2.14,1.67,1.67,0,0,0,.34-.86l0-.38a1.63,1.63,0,0,0-2.93-1.12,2.93,2.93,0,0,1-2.38,1.23,3.16,3.16,0,0,1-2.9-3.95,1.74,1.74,0,0,0,.57-1.16,2.9,2.9,0,0,1,.65-.66,1.63,1.63,0,0,0-1.89-2.65,6.44,6.44,0,0,0-2.09,2.54l-.35.3h0a4.82,4.82,0,0,1-2.63.78,5.09,5.09,0,0,1-5-5.19,8.76,8.76,0,0,1,1.17-3.28,27.59,27.59,0,0,0,5.75-3.29l2.44-1.63a40.39,40.39,0,0,0,8.85-7.67,4.65,4.65,0,0,0,3.05.68h.65a1.67,1.67,0,0,0,.44-.06,12.42,12.42,0,0,0,1.42-.48,5.13,5.13,0,0,0-.08.8,8,8,0,0,0,7.84,8.05h0a7.81,7.81,0,0,0,7.55,6.55,7.24,7.24,0,0,0,1.46-.28c1,2.8,3.62,4.56,7.31,4.56a7.45,7.45,0,0,0,1.06-.09,72.58,72.58,0,0,1-6.53,9.36,1.67,1.67,0,0,0-.5.33,4.08,4.08,0,0,1-2.92,1.23,4.32,4.32,0,0,1-4.22-4.41,9.8,9.8,0,0,1,.31-2l.4-.63a1.67,1.67,0,0,0,.26-.88A1.64,1.64,0,0,0,178.31,190.16ZM198.41,158a23.74,23.74,0,0,0-1.57-2.72,1.13,1.13,0,0,0,.11-.22,103.45,103.45,0,0,0,3.56-19.48,8.6,8.6,0,0,0,5.63,2,6.72,6.72,0,0,0,4.73-2.08A93.06,93.06,0,0,1,207.42,159c-.8,2.72-2.07,6.78-3.52,10.67h0a51.59,51.59,0,0,1-3.27,7.41c-.24.42-.53.89-.82,1.36C202,170.79,201.74,163.7,198.41,158Zm-4.15-5.5a8.34,8.34,0,0,0-2.19-1.17,11.43,11.43,0,0,0-4.29-.85,100.52,100.52,0,0,0,1.79-17,7.62,7.62,0,0,0,4,1.18,7.36,7.36,0,0,0,3.78-1.09A98.08,98.08,0,0,1,194.26,152.49Zm-3.37,1.87c2.28.81,3.51,2.92,4.67,5.19,3.75,6.45,3.12,14.92-1,23.9-.06.06-.14.09-.19.16a4.53,4.53,0,0,1-3.41,1.58c-1.52,0-4.12-.41-4.52-3.09V182a1.64,1.64,0,0,0-2.23-1.52l-.4.16a4.44,4.44,0,0,1-1.62.31,4.62,4.62,0,0,1-4.48-4.26,1.36,1.36,0,0,0,.22-.75,1.88,1.88,0,0,0-.3-1,1.82,1.82,0,0,0-1.74-.73l-1.26.18a4.7,4.7,0,0,1-4.58-4.79,21.89,21.89,0,0,1,1.18-4.2v0c.33-.46.66-1,1-1.53l1.42-2c1.84-3,5.67-7.67,11.69-8.1l.06,0a1.68,1.68,0,0,0,.84-.07A10.86,10.86,0,0,1,190.89,154.36Zm34.29-18q0,3-.16,6.06c-.8,15.78-4.36,29.71-10.6,41.4a71.94,71.94,0,0,1-3.85,6.38l-6.66,10.33a54.57,54.57,0,0,1-7.67,8.75l-.27.29-.82.78-1.13.92-2.11,1.27a7.3,7.3,0,0,1-2.51.94,6.43,6.43,0,0,1-1.65-.08,1.14,1.14,0,0,0-.26,0,5.68,5.68,0,0,1-4.91-2.94l-.17-.71a7.75,7.75,0,0,1-.34-3.42,87.93,87.93,0,0,0,10-12.06,1.62,1.62,0,0,0,.49-.38,126.6,126.6,0,0,0,10.92-15.21,55.62,55.62,0,0,0,3.51-7.91h0c1.48-4,2.77-8.12,3.59-10.89a96.49,96.49,0,0,0,3.57-24.22,7.72,7.72,0,0,0,4.86,1.76,8.35,8.35,0,0,0,4.61-1.47,10.77,10.77,0,0,0,1.57-1.29C225.17,135.24,225.18,135.81,225.18,136.39Zm-.33-8.64s0,0,0,0a6.62,6.62,0,0,1-1.59,4.12,5.76,5.76,0,0,1-4.27,2.28,5.36,5.36,0,0,1-5-4.54,1.63,1.63,0,0,0-3.16-.11c-.66,2.3-2.4,4.78-4.65,4.78a5.05,5.05,0,0,1-5.31-5,1.62,1.62,0,0,0-1.28-1.59,1.63,1.63,0,0,0-1.83.92,4.47,4.47,0,0,1-8.3-.15,1.25,1.25,0,0,0-.1-.27c-.06-.2-.13-.39-.17-.59a1.63,1.63,0,1,0-3.19.66,6.59,6.59,0,0,0,.32,1.07,93.46,93.46,0,0,1-1.84,21.24c-5.29.62-10,3.9-13.47,9.45L169.58,162a.78.78,0,0,0-.1.15c-1.49,2.63-2.64,3.36-4.71,4h-.44a2.66,2.66,0,0,1-1.05-.07c.24-.37.48-.75.73-1.16,3.36-5.57,4.61-11.71,5.25-16.73a4.4,4.4,0,0,0,.88-.24,4.51,4.51,0,0,0,3,1.31,4.3,4.3,0,0,0,3.21-1.38,4.53,4.53,0,0,0,1.13-2.52,7.37,7.37,0,0,0,2.76-1.4,5.11,5.11,0,0,0,1.84-4c0-.13,0-.27,0-.4l-.47-1.75-.33-1c-.17-.55-.43-1.3-1-1.43s-1-.29-1.36.12l-1.08,1.12a8.69,8.69,0,0,1-.55.73.91.91,0,0,1-.36-.61c0-.34.29-.79.85-1.64a10.56,10.56,0,0,0,2-5.07l.2-1.86.09-1a4.55,4.55,0,0,0,2.7-1.24,4.78,4.78,0,0,0,1.35-2.94,8.85,8.85,0,0,0,14.52-2,9.32,9.32,0,0,0,6.62,2.6,8.83,8.83,0,0,0,7.84-5.31,6.45,6.45,0,0,0,2.89.7,9.61,9.61,0,0,0,7.16-3.41A101.33,101.33,0,0,1,224.85,127.75Zm-8.67-31a6,6,0,0,1-1.88,4.38,5.54,5.54,0,0,1-3.82,1.56,6.59,6.59,0,0,1-2.82-1.11,1.64,1.64,0,0,0-1.55,0,1.67,1.67,0,0,0-.89,1.27c-.34,3-2.07,4.75-4.63,4.75a5.27,5.27,0,0,1-4.45-2.51,1.63,1.63,0,0,0-3,.87c0,3.23-2.28,5.85-5.08,5.85a5.24,5.24,0,0,1-4.42-2.47,1.63,1.63,0,0,0-2.75,1.75,8.51,8.51,0,0,0,7.17,4,8.37,8.37,0,0,0,7.73-5.81,8.33,8.33,0,0,0,4.81,1.6,7.51,7.51,0,0,0,7.28-5.46,6.62,6.62,0,0,0,2.61.6,8.77,8.77,0,0,0,5.27-1.77,9.29,9.29,0,0,0,2.94-3.75,73.83,73.83,0,0,1,3.3,9.85.32.32,0,0,0,0,.09,5.76,5.76,0,0,1-2.34,4,6.14,6.14,0,0,1-3.59,1.27,4.85,4.85,0,0,1-2.78-1.09,1.63,1.63,0,0,0-2.48,1,5.94,5.94,0,0,1-5.47,4.73,5.5,5.5,0,0,1-5.51-3.5,1.65,1.65,0,0,0-2.08-1,1.68,1.68,0,0,0-.56.34,1.6,1.6,0,0,0-.75,1.18,5.8,5.8,0,0,1-5.69,5.35,5.71,5.71,0,0,1-5-3,1.63,1.63,0,0,0-2.21-.64,1.59,1.59,0,0,0-.39.33l0,0a1.79,1.79,0,0,0-1.45-.73,1.63,1.63,0,0,0-1.36.74,2.24,2.24,0,0,1-.56.66,1.28,1.28,0,0,1-.87-.33,3.3,3.3,0,0,1-.43-2.06,15.4,15.4,0,0,1,.14-1.93,6.86,6.86,0,0,0,.07-1,7.35,7.35,0,0,0-.34-2.07,6.2,6.2,0,0,0,.74-3.22,8,8,0,0,0-1-2.62,2.49,2.49,0,0,0-.36-.43,30.57,30.57,0,0,0,3.72-4.76A18.16,18.16,0,0,0,184,93.74l.13-.91a15.59,15.59,0,0,1,.94-3c2.59-6.63,8.67-10.57,14.47-9.37l.82.11.21,0c6.08,1.74,11.38,6.89,15.5,14.35Z"/><path class="cls-1" d="M147.62,127.56l.84-.45,1.41-.72a9.59,9.59,0,0,1,4.92-.72,8,8,0,0,1,2.41.52l1.49.45a.57.57,0,0,0,.73-.41.62.62,0,0,0-.44-.77l-1.39-.42a9.25,9.25,0,0,0-2.76-.59,10.78,10.78,0,0,0-5.45.82l-1.51.77-.81.44a.61.61,0,0,0-.26.83A.6.6,0,0,0,147.62,127.56Z"/></g></g></g></svg>